<?xml version="1.0" encoding="UTF-8" standalone="no"?>
<svg
   xmlns:dc="http://purl.org/dc/elements/1.1/"
   xmlns:cc="http://creativecommons.org/ns#"
   xmlns:rdf="http://www.w3.org/1999/02/22-rdf-syntax-ns#"
   xmlns:svg="http://www.w3.org/2000/svg"
   xmlns="http://www.w3.org/2000/svg"
   xmlns:sodipodi="http://sodipodi.sourceforge.net/DTD/sodipodi-0.dtd"
   xmlns:inkscape="http://www.inkscape.org/namespaces/inkscape"
   width="640"
   height="480"
   id="svg7480"
   version="1.1"
   inkscape:version="0.91+devel+osxmenu r12911"
   sodipodi:docname="cloud.svg"
   viewBox="0 0 640 480">
  <metadata
     id="metadata7491">
    <rdf:RDF>
      <cc:Work
         rdf:about="">
        <dc:format>image/svg+xml</dc:format>
        <dc:type
           rdf:resource="http://purl.org/dc/dcmitype/StillImage" />
        <dc:title></dc:title>
      </cc:Work>
    </rdf:RDF>
  </metadata>
  <defs
     id="defs7489" />
  <sodipodi:namedview
     pagecolor="#ffffff"
     bordercolor="#666666"
     borderopacity="1"
     objecttolerance="10"
     gridtolerance="10"
     guidetolerance="10"
     inkscape:pageopacity="0"
     inkscape:pageshadow="2"
     inkscape:window-width="1274"
     inkscape:window-height="501"
     id="namedview7487"
     inkscape:document-units="px"
     showgrid="false"
     inkscape:zoom="0.475"
     inkscape:cx="315.78947"
     inkscape:cy="239.72772"
     inkscape:window-x="179"
     inkscape:window-y="64"
     inkscape:window-maximized="0"
     inkscape:current-layer="g7482" />
  <!-- Created with SVG-edit - http://svg-edit.googlecode.com/ -->
  <g
     id="g7482">
    <title
       id="title7484">Layer 1</title>
    <path
       id="svg_7"
       d="m 537.0698,202.17452 c 0.46607,-5.46749 0.73615,-10.99082 0.73615,-16.57047 0,-96.786291 -68.66318,-175.23578 -153.37583,-175.23578 -65.74292,0 -121.67001,47.355693 -143.48619,113.80517 -14.45405,-18.1124 -35.06782,-29.692031 -58.20906,-29.692031 -43.63243,0 -78.99483,40.402441 -78.99483,90.253411 0,5.88798 0.56445,11.63583 1.52155,17.18722 C 47.052301,212.88471 2.5119817,270.22211 2.5119817,339.81152 2.5119817,417.25168 57.457346,480 125.21273,480 l 389.57472,0 c 67.77985,0 122.70056,-62.74832 122.70056,-140.18848 0.0245,-68.72045 -43.31311,-125.63693 -100.41821,-137.637 z"
       stroke-linecap="null"
       stroke-linejoin="null"
       inkscape:connector-curvature="0"
       style="fill:#bbbbbb;fill-opacity:1" />
  </g>
</svg>
