<?xml version="1.0"?>
<svg width="640" height="480" xmlns="http://www.w3.org/2000/svg" xmlns:svg="http://www.w3.org/2000/svg">
 <!-- Created with SVG-edit - http://svg-edit.googlecode.com/ -->
 <g>
  <title>Layer 1</title>
  <path stroke="#000000" id="svg_8" d="m554.690979,249.689407l81.419128,-32.405884c-1.600769,-12.011688 -4.693176,-23.665421 -8.563782,-35.107559l-90.436768,-9.423965c-7.828186,-14.192871 -18.1651,-27.360275 -30.318359,-39.437241l34.470398,-63.818748c-11.331604,-8.317154 -23.571472,-15.90184 -36.459961,-22.884289l-76.791229,36.279507c-18.013885,-7.128952 -37.411682,-12.532547 -57.782593,-16.015701l-27.745117,-64.714083c-7.871674,-0.439468 -15.743317,-0.911444 -23.766296,-0.911444s-15.872833,0.45575 -23.765961,0.911444l-27.485718,64.144434c-20.911575,3.369118 -40.741867,8.837982 -59.209961,16.048264l-75.601776,-35.74242c-12.866974,6.982449 -25.106705,14.567135 -36.438461,22.884289l33.519135,62.044701c-13.061531,12.614029 -24.003952,26.51384 -32.221588,41.504288l-87.582066,9.114639c-3.849365,11.442169 -6.96339,23.07962 -8.542004,35.107697l78.607666,31.299057c0.886589,16.487717 4.519669,32.454727 10.942337,47.493851l-59.296402,49.349304c6.898502,10.758575 14.575523,21.207947 23.463444,31.006134l87.300961,-14.111511c14.315964,11.718994 30.621338,21.989258 48.613556,30.485474l-3.308624,67.236603c14.337494,4.866913 29.237183,8.935669 44.591248,12.191101l55.230743,-53.434631c9.796173,0.943848 19.722198,1.578705 29.842743,1.578705c10.964233,0 21.690277,-0.748749 32.243347,-1.839294l55.512115,53.727875c15.375122,-3.25531 30.253448,-7.32431 44.591034,-12.190979l-3.373871,-68.441528c17.148956,-8.349396 32.697662,-18.342896 46.407928,-29.638824l89.571716,14.469421c8.887756,-9.798065 16.56488,-20.231079 23.463013,-31.005981l-61.220581,-50.960632c5.88208,-14.241699 9.169006,-29.280853 10.120605,-44.792068zm-135.309204,77.848801l-38.600983,18.913086l-23.744324,-27.457886c-12.348145,3.580902 -25.647552,5.745544 -39.660797,5.745544c-61.2211,0 -110.829376,-37.353912 -110.829376,-83.415344c0,-46.07782 49.608276,-83.415497 110.829376,-83.415497c61.199371,0 110.829163,37.337677 110.829163,83.415497c0,23.014343 -12.391174,43.831665 -32.416107,58.936035l23.593048,27.278564z" stroke-linecap="null" stroke-linejoin="null" stroke-dasharray="null" stroke-width="5" fill="#00007f"/>
 </g>
</svg>