<?xml version="1.0" encoding="utf-8"?>
<!-- Generator: Adobe Illustrator 14.0.0, SVG Export Plug-In . SVG Version: 6.00 Build 43363)  -->
<!DOCTYPE svg PUBLIC "-//W3C//DTD SVG 1.1//EN" "http://www.w3.org/Graphics/SVG/1.1/DTD/svg11.dtd">
<svg version="1.1" id="Layer_1" xmlns="http://www.w3.org/2000/svg" xmlns:xlink="http://www.w3.org/1999/xlink" x="0px" y="0px"
	 width="561.538px" height="1371.375px" viewBox="0 0 561.538 1371.375" enable-background="new 0 0 561.538 1371.375"
	 xml:space="preserve">
<path fill="#F68632" d="M297.33,505.306c-97.667,0-176.84,79.174-176.84,176.84c0,34.22,9.734,66.16,26.564,93.229
	c-0.002,0.001-0.004,0.001-0.005,0.003c0.667,1.083-0.096,2.439-1.493,1.845c-2.747-1.356-5.314-2.831-7.603-4.431
	c-2.729-1.917-5.902-2.942-9.146-2.943h0c-5.671,0-10.714,3.126-13.16,8.16c-0.991,2.039-1.478,4.206-1.477,6.385
	c0.002,3.467,1.242,6.967,3.655,10.039c1.048,1.333,2.189,2.636,3.411,3.897c-1.938,5.957,0.129,12.446,5.326,16.62
	c2.069,1.655,4.614,3.332,7.439,4.943c-0.126,5.466,2.858,11.579,10.321,14.515c0.281,0.111,0.566,0.219,0.855,0.327
	c0.975,5.444,5.038,9.949,10.93,11.764c0.619,0.192,1.289,0.389,2.005,0.586c2.167,5.813,7.786,9.613,14.472,9.613
	c0.496,0,1.004-0.021,1.512-0.062c11.548-0.906,26.849-6.15,41.577-17.604c24.428,12.74,52.198,19.952,81.655,19.952
	c97.667,0,176.84-79.174,176.84-176.84S394.997,505.306,297.33,505.306z M356.861,644.031c3.069,0.569,11.238-4.481,16.436-8.051
	c5.178-3.57,21.652-11.101,23.604-14.465c1.941-3.373,5.188-8.051,6.747-9.61c1.549-1.549,0.647-5.031,2.98-5.031
	c2.04,0,2.746,5.197,1.451,7.923c-0.186,0.392,0.256,0.961,0.717,0.882c3.373-0.549,6.511-2.863,8.335-2.863
	c2.079,0,1.952,3.766,0,6.875c-1.942,3.108-6.874,7.658-12.316,7.658c-5.452,0-9.601,4.295-14.013,7.139
	c-4.354,2.815-29.135,28.605-69.233,29.165c4.089-10.502,11.601-19.211,12.013-19.623
	C343.721,644.6,353.782,643.453,356.861,644.031z M370.795,654.887l-22.907,21.937c-0.559-0.304-1.196-0.549-1.922-0.735
	c-1.755-0.451-3.305-0.677-4.697-0.706l17.181-16.445c3.972-1.736,7.609-3.628,10.904-5.541
	C372.826,651.376,370.795,654.887,370.795,654.887z M323.98,671.371c-1,1.628-2.932,3.628-4.628,0
	c-1.696-3.618,0.059-4.688,0.893-4.688v-0.02c1.598-0.02,3.177-0.088,4.727-0.196C327.736,666.468,324.98,669.753,323.98,671.371z
	 M329.825,616.26c-1.932,1.932,1.882,4.314-2.766,4.981c-4.647,0.657-8.963,0-8.963,0c0-0.588,1.187-3.873,2.972-6.168
	c0.245-0.334,0.049-0.844-0.363-0.706c-3.441,1.127-8.208,6.737-5.393,12.396c0.167,0.333,0.618,0.215,0.676-0.147
	c0.206-1.324,0.726-2.334,1.05-2.863c0.167-0.265,0.5-0.216,0.607-0.128c2.521,1.883,7.571-0.372,8.267,0.314
	c0.716,0.725-0.402,3.824,3.255,3.824c3.648,0,9.188,3.883,7.748,6.757c-1.442,2.883-5.756,0.882-10.738-0.775
	c-4.981-1.657-9.571,2.216-14.141,0c-4.57-2.216-6.56,0.333-8.11-1.216c-1.549-1.55,3.972-5.08,4.805-7.57
	c0.676-2.011,1.304-11.591,2.226-16.014c0.274-0.657,0.49-1.54,2.265-2.667c2.687-1.716,5.541-3.55,8.355-5.403
	c1.344-0.883,2.677-0.599,3.55-0.285c1.235,0.559,1.833,1.373,2.127,2.265c0.716,3.04-8.139,6.306-8.002,7.227
	c0.481,3.295,7.394-1.226,11.042-1.069h0.009c0.255,0.03,0.539,0.049,0.854,0.049c6.531,0,7.423,2.658,7.423,3.658
	C338.582,613.71,331.767,614.318,329.825,616.26z M293.522,630.538c-2.099-2.109-7.109,11.816-11.64,9.61
	c-3.03-1.481,2.893-5.962,1.127-7.727c-1.775-1.775-6.962,4.981-8.963,2.981c-1.363-1.363,2.089-5.717,4.403-8.345
	c0.392-0.382,1.706-1.844,3.56-2.746c7.168-3.442,15.2-7.864,22.044-12.15c0.922-0.598,1.942-1.265,3.04-1.971
	c0.059-0.039,0.118-0.078,0.167-0.108c1.157-0.676-0.235,10.366-3.108,9.934c0,6.315-7.757,17.053-9.629,16.387
	C292.639,635.735,295.62,632.636,293.522,630.538z M297.18,638.118c2.049-2.246,3.099-2.54,4.256-1.383
	c1.167,1.157,1.393,0.774,2.216-0.059c0.824-0.824,1.716-2.707,3.207-2.05c1.5,0.667,2.716,1,0.726,4.374
	c-2,3.383-2.716,4.707-6.208,3.099C297.896,640.501,295.846,639.569,297.18,638.118z M338.199,581.967
	c3.972,3.962-24.457,20.691-35.999,28.34c-16.033,10.022-38.568,20.78-41.216,18.122c-2.657-2.658,7.335-13.434,18.328-14.297h0.01
	c17.494-0.706,31.409-14.641,36.126-24.035C323.009,583.183,336.719,580.477,338.199,581.967z M311.546,586.341
	c-4.521,8.914-17.259,21.819-33.439,23.731l-3.638-12.229c12.964-2.069,23.555-11.101,29.232-19.053L311.546,586.341z
	 M255.963,532.867l43.815,42.147c-5.315,7.403-14.867,15.709-26.604,18.475l-17.907-60.132
	C255.072,532.71,255.62,532.523,255.963,532.867z M202.304,607.211l2.304-9.148l5.86,7.394l9.412-0.637l-5.221,7.858l3.514,8.755
	l-9.087-2.536l-7.241,6.045l-0.395-9.424l-7.988-5.02L202.304,607.211z M186.633,666.282c26.683-26.32,65.271-26.683,75.626-27.115
	c10.679-0.441,13.444,0.501,18.367,2.658c4.923,2.158,6.198,2.108,7.306,2.108c1.108,0,6.158-2.333,6.747-0.666
	c0.647,1.814-5.256,3.099-12.297,7.933c-5.521,3.775-48.414,49.845-47.021,92.13c0.039,1.216-1.902,2.373-2.893,1.726
	c-24.791-16.2-17.906-35.979-16.209-50.021c1.686-13.906-5.845-23.928-28.566-25.889
	C186.535,669.047,185.77,667.135,186.633,666.282z M147.279,709.388c-0.578,0.063-1.59-0.595-1.559-1.13
	c0.211-3.747-2.291-9.073-6.047-12.237c-0.825-0.694-1.062-1.85,0.001-1.728c3.617,0.41,9.167,2.085,14.786,3.691
	c7.271,2.076,12.35,5.654,12.35,10.963c0,3.561,0.207,6.082,1.074,7.773c0.427,0.834,1.491,0.38,1.608-0.419
	c0.235-1.612,1.161-3.159,2.396-3.776c1.847-0.924,2.192-3.924,3.115-4.847c2.654,2.654,1.155,5.194,1.155,6.001
	c0,0,1.153,2.885,2.076,3.809c0,0,4.213,0.52,5.309,1.616c-1.789,1.788-3.809,2.425-4.615,2.425c-0.611,0-1.748,1.051-3.41,1.567
	c-0.539,0.167-1.07,1.433-0.384,1.87c3.287,2.096,10.97,2.353,13.835,5.218c3.117,3.117,1.369,16.813,2.507,22.878
	c0.126,0.67-0.728,1.484-1.34,1.271c-4.286-1.482-8.438-6.104-8.438-9.84c0-3.986-0.704-7.871-6.807-7.338
	c-0.434,0.039-1.064-0.965-0.995-1.543c0.427-3.536-1.343-7.043-3.624-7.738c-2.654-0.809-6.117-2.077-6.117-4.731
	c0-2.408-1.709-4.341-5.989-3.302c-0.438,0.107-1.26-0.545-1.291-1.133C156.673,714.932,153.695,708.682,147.279,709.388z
	 M224.672,810.288c-18.456,24.732-40.794,31.812-51.67,32.665c-2.697,0.216-2.54-1.628-0.882-2.51
	c1.52-0.814,3.04-1.726,4.423-2.677c1.765-1.206,0.922-2.51-1.079-2.344c-4.933,0.402-10.571-0.569-15.307-2.04
	c-2.207-0.676-1.775-2.147,0.235-2.441c4.197-0.608,8.169-2.118,11.229-3.677c2.569-1.314,1.432-2.51-0.833-2.344
	c-7.326,0.52-16.151-1.206-21.437-3.285c-2.716-1.069-1.697-2.432,0.598-2.265c3.883,0.274,8.845,0.088,12.66-0.735
	c1.873-0.412,1.48-1.893-0.275-2.246c-8.953-1.775-21.436-7.551-27.173-12.141c-1.647-1.324-0.854-2.627,0.853-2.255
	c3.913,0.824,9.61,1.305,14.386,1.305c3.216,0,2.314-1.687-0.118-2.491c-9.993-3.314-17.661-9.767-21.662-14.856
	c-1.657-2.108-0.078-2.991,1.471-1.902c24.967,17.445,66.173,19.907,79.235,10.453c0.599,3.609,4.139,9.268,7.708,10.611
	c0.824,0.304,1.627-0.902,1.274-1.412c-7.315-10.425-4.305-15.396,0.687-18.378c2.207,4.658,6.413,10.12,15.307,14.611
	C234.919,803.58,233.507,810.288,224.672,810.288z M260.602,760.422l-23.663,22.653v0.01c-0.873,0.853,1.442,4.433,3.991,3.53
	c2.55-0.902,5.443-2.069,6.453-1.049c1.01,1.01-8.277,5.747-7.865,6.148c0.402,0.412,5.198-0.784,5.992,0
	c0.706,0.716-3.099,4.481-8.659,4.717c-6.953-3.629-10.924-7.865-13.327-11.778c0-0.009-0.009-0.009-0.009-0.009
	c-0.912-1.648-1.127-13.425,1.569-13.425c2.707,0,0.883,7.815,3.442,7.433c2.569-0.373,0.843-10.954,3.766-9.983
	c1.961,0.657,2.138,5.58,2.422,8.767l21.976-21.044c0,0,0.313-0.461,0.843,0.068c0.598,0.599,1.363,1.03,2.138,1.52
	c0.255,0.157,0.51,0.305,0.755,0.451C261.749,759.177,260.602,760.422,260.602,760.422z M261.593,755.294
	c-18.043-11.199-1.334-34.744,4.932-57.73c6.276-22.976,13.739-38.264,17.181-41.912c1.883-1.922,3.295-3.187,4.03-3.696
	c2.58-1.756,4.992-3.05,6.992-4.061c0.147-0.088,0.304-0.167,0.48-0.245c5.953-2.745,30.949-7.041,34.371-3.618
	c-0.461,0.451-9.218,10.61-12.954,22.25c-1.02,3.177-2.51,2.942-3.864,0.382c-3.893-7.414-12.022-10.14-16.151-7.639
	c-0.794,0.48,0.039,2.108,0.98,2.294c6.609,1.285,12.425,7.149,12.425,18.78c0,13.288-15.092,27.055-20.319,32.282
	c-2.108,2.108-3.56,3.834-4.55,5.266c-1.471,2.128-0.618,3.54,1.51,1.765c9.581-8.002,36.293-30.351,40.509-34.567
	c5.148-5.159,8.679-8.168,17.034-6.001c4.629,1.187,5.639,4.766,5.609,9.228c-0.02,3.599,1.932,2.863,2.393-0.617
	c0.451-3.462,0.108-6.257-1.746-8.316c-0.019-0.02-0.049-0.049-0.068-0.078c-0.422-0.54-0.226-1.628,0.735-1.883
	c0.01-0.01,0.02-0.01,0.02-0.01c1.952-0.363,4.57,0.078,8.444,1.677c9.874,4.06,1.52,32.969-2.285,48.541
	c-3.089,12.641-1.53,33.675,3.021,43.217c1.06,2.216-0.05,4.55-1.677,4.03c-0.421-0.138-0.833-0.294-1.255-0.461
	c-5.413-2.236-10.091-7.158-19.593-8.601c-0.226-0.029-0.441-0.059-0.657-0.088c-0.363-0.049-0.736-0.088-1.118-0.127
	c-0.255-0.03-0.52-0.05-0.784-0.069c-0.53-0.039-1.079-0.068-1.638-0.088c-0.441-0.01-0.902-0.02-1.363-0.02
	c-11.169,0-22.564,6.609-31.341,11.562c-5.256,2.961-6.168,1.324-1.952-3.079c6.472-6.776,13.454-16.24,15.063-23.486
	c1.971-8.855,7.159-21.466,13.729-33.959c2.305-4.393,3.393-8.904-2.157-3.098c-7.501,7.835-17.926,18.857-25.487,27.369
	C286.942,755.294,279.636,766.502,261.593,755.294z M347.731,773.023l-0.687,3.805c-2.01,0.766-3.952,1.922-5.423,3.57
	c-0.304,0.333-1.471,0.451-1.814,0.157c-0.843-0.735-1.755-1.441-2.559-2.196l1.549-8.737
	C342.377,770.396,345.231,771.66,347.731,773.023z M316.763,771.945l-6.609,13.013c-2.501,0.137-5.119,0.794-7.276,2.265
	c-0.363,0.245-1.53,0.079-1.795-0.294c-0.461-0.657-0.971-1.324-1.441-1.98l3.108-6.119
	C307.025,776.427,311.791,773.867,316.763,771.945z M327.569,830.155c-7.501,3.108-15.219,0.627-24.722-3.109
	c-11.738-4.619-7.09-12.356-6.874-15.494c0.206-3.148-4.413-6.12-8.385-2.079c-2.147-0.53-4.609-1.883-5.776-3.824
	c1.275-5.158,4.207-15.151,10.944-15.651c0,0,0.382-3.021,1.5-5.501c0.539-1.196,1.736-0.696,2.059,0.313
	c0.559,1.727,1.952,3.344,3.119,5.001c0.255,0.363,1.422,0.539,1.794,0.285c3.746-2.55,8.904-2.648,12.366-1.824
	c0.765,0.176,0.471,1.245-0.215,1.569c-7.993,3.756-9.13,10.13-8.757,16.239c0.412,6.619,3.579,12.258,8.708,16.386
	c3.618,2.893,9.051,4.334,13.896,4.658C329.276,827.252,329.334,829.42,327.569,830.155z M376.258,816.21
	c-6.531,4.825-14.621,4.276-24.732,2.932c-12.513-1.657-9.856-10.287-10.404-13.386c-0.56-3.099-5.756-4.874-8.64,0
	c-2.216,0-4.923-0.726-6.531-2.324c0-5.315,0.441-15.72,6.864-17.828c0,0-0.353-3.02,0.137-5.698
	c0.226-1.294,1.52-1.088,2.069-0.196c0.961,1.55,2.707,2.786,4.227,4.109c0.344,0.294,1.52,0.177,1.814-0.147
	c3.02-3.373,8.002-4.717,11.571-4.756c0.775-0.01,0.746,1.099,0.157,1.579c-6.855,5.569-6.424,12.032-4.59,17.867
	c1.991,6.335,6.423,11.042,12.395,13.807c4.207,1.942,9.827,2.04,14.603,1.177C377.218,812.994,377.797,815.073,376.258,816.21z
	 M400.281,750.698l-7.521-5.694l-8.955,2.966l3.092-8.911l-5.588-7.601l9.431,0.188l5.501-7.665l2.737,9.028l8.989,2.862
	l-7.74,5.394L400.281,750.698z M423.123,680.808l-9.087-2.536l-7.241,6.045l-0.395-9.424l-7.988-5.02l8.842-3.287l2.304-9.148
	l5.86,7.394l9.412-0.637l-5.221,7.858L423.123,680.808z M417.121,610.523c-1.451,0.647-3.089,1.383-4.796,1.667
	c-0.931,0.147-0.97-0.441-0.794-0.794c0.53-1.079,0.745-2.569,0.678-3.962l11.483-10.993c0.823-0.824,2.882-0.775,3.656,0
	c0.785,0.784,1.678,2.677,0.314,3.971L417.121,610.523z"/>
</svg>
