<?xml version="1.0"?>
<svg width="640" height="480" xmlns="http://www.w3.org/2000/svg" xmlns:svg="http://www.w3.org/2000/svg">
 <!-- Created with SVG-edit - http://svg-edit.googlecode.com/ -->
 <g>
  <title>Layer 1</title>
  <path stroke="#000000" id="svg_7" d="m537.119812,198.869247c0.466064,-5.467484 0.736145,-10.990814 0.736145,-16.570465c0,-96.786293 -68.663177,-175.235782 -153.375824,-175.235782c-65.74292,0 -121.670013,47.355693 -143.486191,113.805171c-14.454056,-18.112404 -35.067825,-29.692032 -58.209061,-29.692032c-43.632431,0 -78.994835,40.402443 -78.994835,90.25341c0,5.887985 0.564453,11.635834 1.521553,17.187225c-58.209282,10.962662 -102.749601,68.300064 -102.749601,137.889481c0,77.440155 54.945364,140.188477 122.700742,140.188477l389.574722,0c67.779846,0 122.700562,-62.748322 122.700562,-140.188477c0.024475,-68.720459 -43.31311,-125.636932 -100.418213,-137.637009z" stroke-linecap="null" stroke-linejoin="null" stroke-dasharray="null" stroke-width="5" fill="#00ff00"/>
 </g>
</svg>